<svg width="64" height="64" viewBox="0 0 64 64" fill="none" xmlns="http://www.w3.org/2000/svg">
<path d="M32.1982 23.8848C32.4047 23.9017 32.8058 23.9408 33.0889 23.9717C33.3721 24.0017 33.9006 24.1138 34.2617 24.2188C34.6229 24.324 35.2761 24.5996 35.7148 24.8321C36.1536 25.0637 36.7821 25.471 37.1123 25.7374C37.4433 26.0037 37.9658 26.5375 38.2734 26.9249C38.582 27.3113 38.9934 27.9447 39.1875 28.3321C39.3807 28.7185 39.6265 29.3314 39.7344 29.6924C39.8422 30.0536 39.9697 30.7068 40.0156 31.1456C40.0653 31.6164 40.0653 32.2891 40.0156 32.7872C39.9697 33.2514 39.8432 33.9271 39.7363 34.2881C39.6293 34.6493 39.367 35.2819 39.1533 35.6944C38.9395 36.1071 38.5107 36.758 38.2012 37.1407C37.8908 37.5233 37.3425 38.0653 36.9814 38.3467C36.6204 38.6281 36.0084 39.0178 35.6211 39.212C35.2348 39.406 34.6022 39.6581 34.2148 39.7725C33.8285 39.886 33.1734 40.0073 32.7607 40.0411C32.3481 40.0748 31.6518 40.0759 31.2129 40.043C30.7741 40.0102 30.1003 39.8888 29.7129 39.7735C29.3265 39.6591 28.693 39.4071 28.3057 39.2139C27.9192 39.0198 27.2858 38.6064 26.8984 38.296C26.512 37.9855 25.9772 37.463 25.7109 37.1348C25.4446 36.8064 25.0372 36.18 24.8047 35.7413C24.5731 35.3025 24.2955 34.6493 24.1895 34.2881C24.0825 33.9271 23.9571 33.2514 23.9111 32.7872C23.8614 32.2891 23.8614 31.6164 23.9111 31.1456C23.9571 30.7068 24.0846 30.0536 24.1924 29.6924C24.3002 29.3314 24.5461 28.7185 24.7393 28.3321C24.9334 27.9447 25.3448 27.3113 25.6533 26.9249C25.961 26.5375 26.4834 26.0037 26.8145 25.7374C27.1447 25.471 27.7731 25.0637 28.2119 24.8321C28.6509 24.5995 29.3265 24.3167 29.7129 24.2042C30.1002 24.0926 30.7329 23.9671 31.1191 23.9268C31.5065 23.8865 31.9919 23.8679 32.1982 23.8848Z" fill="white"/>
<path fill-rule="evenodd" clip-rule="evenodd" d="M19.6699 8.01763C19.6915 7.99512 25.2631 7.98906 44.3906 8.03033L45.3281 8.24615C45.844 8.36526 46.5196 8.54732 46.8291 8.65142C47.1386 8.7546 47.7299 8.98796 48.1426 9.16802C48.5552 9.34906 49.1457 9.6514 49.4551 9.83892C49.7646 10.0265 50.2922 10.3834 50.6279 10.6319C50.9637 10.8795 51.5695 11.4081 51.9746 11.8047C52.3806 12.2023 52.9525 12.8441 53.2461 13.2315C53.5406 13.6179 53.9334 14.1886 54.1191 14.4981C54.3048 14.8075 54.6051 15.3979 54.7852 15.8106C54.9661 16.2232 55.1986 16.8145 55.3018 17.1241C55.4059 17.4336 55.5891 18.1295 55.9268 19.6563V44.3233L55.71 45.3077C55.5899 45.8488 55.3832 46.6087 55.25 46.9962C55.1159 47.3826 54.8721 47.9954 54.707 48.3565C54.542 48.7176 54.2046 49.3285 53.957 49.7159C53.7104 50.1023 53.3288 50.6524 53.1094 50.9356C52.8899 51.2188 52.3797 51.7783 51.9746 52.1788C51.5695 52.5792 50.8578 53.1808 50.3936 53.5157C49.9293 53.8505 49.1272 54.3307 48.6113 54.5821C48.0955 54.8344 47.3562 55.1471 46.9697 55.2784C46.5824 55.4097 45.7384 55.6268 43.9219 56.0001H20.0049L18.833 55.7588C18.1877 55.6266 17.3434 55.4097 16.957 55.2794C16.5697 55.148 15.8312 54.8344 15.3154 54.5821C14.7996 54.3298 13.9974 53.8495 13.5332 53.5157C13.0689 53.1817 12.3181 52.538 11.8643 52.086C11.4113 51.633 10.7675 50.8842 10.4346 50.42C10.1016 49.9557 9.6234 49.1536 9.37109 48.6378C9.11974 48.1219 8.80608 47.3826 8.67383 46.9962C8.54252 46.6088 8.3367 45.8492 8 44.3233V19.6563L8.21777 18.6719C8.33782 18.1298 8.52089 17.4336 8.625 17.1241C8.72819 16.8145 8.96061 16.2232 9.1416 15.8106C9.3217 15.3979 9.62299 14.8075 9.80957 14.4981C9.99622 14.1886 10.3325 13.6816 10.5576 13.3721C10.7818 13.0626 11.3114 12.4568 11.7334 12.0254C12.1563 11.5941 12.8186 11.0007 13.2051 10.7071C13.5924 10.4135 14.1303 10.0382 14.4014 9.87408C14.6724 9.70904 15.1991 9.43237 15.5732 9.25982C15.9475 9.08631 16.5706 8.83539 16.957 8.7022C17.3444 8.56902 18.1044 8.37048 18.6455 8.25982C19.1863 8.14921 19.6471 8.0402 19.6699 8.01763ZM32.4795 19.671C31.9121 19.6466 31.1315 19.657 30.7441 19.6973C30.3577 19.7367 29.7027 19.8437 29.29 19.9346C28.8775 20.0256 28.2449 20.2066 27.8838 20.336C27.5227 20.4654 26.8892 20.738 26.4766 20.9424C26.064 21.1459 25.452 21.4966 25.1172 21.7208C24.7824 21.9449 24.2117 22.3799 23.8506 22.6876C23.4896 22.9941 22.9496 23.5352 22.6494 23.8897C22.3493 24.2433 21.9204 24.8088 21.6953 25.1436C21.4702 25.4785 21.1195 26.0904 20.916 26.503C20.7116 26.9157 20.4318 27.5707 20.2939 27.9571C20.1561 28.3444 19.9555 29.082 19.8477 29.5977C19.6995 30.3133 19.6523 30.8817 19.6523 31.9903C19.6524 33.0986 19.6995 33.6664 19.8477 34.3819C19.9555 34.8976 20.1561 35.6361 20.2939 36.0225C20.4318 36.4099 20.7116 37.0639 20.916 37.4766C21.1195 37.8893 21.4702 38.5022 21.6953 38.837C21.9205 39.1718 22.3494 39.7364 22.6494 40.0899C22.9496 40.4444 23.4896 40.9855 23.8506 41.292C24.2117 41.5997 24.7824 42.0347 25.1172 42.2588C25.452 42.483 26.064 42.8337 26.4766 43.0372C26.8892 43.2416 27.5442 43.5214 27.9307 43.6592C28.318 43.7971 29.0556 43.9977 29.5713 44.1055C30.2869 44.2537 30.8553 44.3008 31.9639 44.3008C33.0722 44.3008 33.64 44.2537 34.3555 44.1055C34.8712 43.9977 35.6097 43.7971 35.9961 43.6592C36.3834 43.5214 37.0375 43.2416 37.4502 43.0372C37.8629 42.8336 38.4748 42.483 38.8105 42.2588C39.1463 42.0346 39.7152 41.5996 40.0762 41.292C40.4371 40.9855 40.9771 40.4444 41.2773 40.0899C41.5774 39.7364 42.0063 39.1718 42.2314 38.837C42.4565 38.5022 42.8175 37.8687 43.0342 37.4297C43.2499 36.9908 43.547 36.274 43.6934 35.835C43.8397 35.3961 44.031 34.637 44.1191 34.1465C44.2166 33.598 44.2793 32.7694 44.2793 31.9903C44.2793 31.2111 44.2166 30.3817 44.1191 29.8331C44.031 29.3435 43.8397 28.5835 43.6934 28.1446C43.547 27.7056 43.2499 26.9888 43.0342 26.5499C42.8176 26.1111 42.4565 25.4785 42.2314 25.1436C42.0063 24.8088 41.5775 24.2433 41.2773 23.8897C40.9771 23.5352 40.4371 22.9941 40.0762 22.6876C39.7152 22.38 39.1463 21.945 38.8105 21.7208C38.4748 21.4966 37.8629 21.146 37.4502 20.9424C37.0375 20.738 36.3834 20.4582 35.9961 20.3204C35.6097 20.1825 34.8927 19.9892 34.4023 19.8926C33.9119 19.7951 33.0469 19.6963 32.4795 19.671ZM44.9531 16.0694C44.3888 16.0516 44.0869 16.0917 43.7344 16.2286C43.4765 16.3289 43.0754 16.5758 42.8428 16.7774C42.6102 16.9791 42.3087 17.3505 42.1719 17.6036C42.034 17.8559 41.8747 18.3053 41.8193 18.6016C41.7453 18.9915 41.7453 19.2898 41.8203 19.6797C41.8775 19.9761 42.005 20.3781 42.1025 20.5713C42.2012 20.7646 42.4595 21.1 42.6787 21.3165C42.8982 21.5331 43.3105 21.818 43.5938 21.9493C44.011 22.1424 44.2528 22.1885 44.8594 22.1885C45.4662 22.1885 45.7086 22.1425 46.126 21.9493C46.4092 21.8179 46.8114 21.5433 47.0186 21.3399C47.2268 21.1364 47.4891 20.7786 47.6025 20.5469C47.716 20.3152 47.8528 19.9038 47.9053 19.6329C47.9728 19.2879 47.9706 18.9794 47.8984 18.6016C47.8412 18.3052 47.7147 17.9032 47.6172 17.71C47.5187 17.5168 47.2595 17.1775 47.04 16.9571C46.8206 16.7358 46.4307 16.4519 46.1729 16.3253C45.8155 16.1489 45.5252 16.0882 44.9531 16.0694Z" fill="white"/>
</svg>
