<svg width="64" height="64" viewBox="0 0 64 64" fill="none" xmlns="http://www.w3.org/2000/svg">
<path d="M51.658 8H12.342C9.944 8 8 9.944 8 12.342V51.6579C8 54.056 9.944 56 12.342 56H51.6579C54.056 56 56 54.056 56 51.6579V12.342C56 9.944 54.056 8 51.658 8ZM22.8532 49.4464C22.8532 50.1442 22.2875 50.7099 21.5897 50.7099H16.2109C15.513 50.7099 14.9473 50.1442 14.9473 49.4464V26.8988C14.9473 26.2009 15.513 25.6352 16.2109 25.6352H21.5897C22.2875 25.6352 22.8532 26.2009 22.8532 26.8988V49.4464ZM18.9003 23.5098C16.0782 23.5098 13.7904 21.222 13.7904 18.3999C13.7904 15.5778 16.0782 13.2901 18.9003 13.2901C21.7223 13.2901 24.0101 15.5778 24.0101 18.3999C24.0101 21.222 21.7225 23.5098 18.9003 23.5098ZM50.9625 49.5481C50.9625 50.1897 50.4423 50.7099 49.8007 50.7099H44.0289C43.3873 50.7099 42.8671 50.1897 42.8671 49.5481V38.9721C42.8671 37.3943 43.3299 32.0584 38.744 32.0584C35.1868 32.0584 34.4653 35.7107 34.3205 37.3497V49.5481C34.3205 50.1897 33.8004 50.7099 33.1587 50.7099H27.5763C26.9347 50.7099 26.4145 50.1897 26.4145 49.5481V26.797C26.4145 26.1554 26.9347 25.6352 27.5763 25.6352H33.1587C33.8002 25.6352 34.3205 26.1554 34.3205 26.797V28.7641C35.6395 26.7847 37.5997 25.2569 41.7733 25.2569C51.0154 25.2569 50.9625 33.8913 50.9625 38.6356V49.5481Z" fill="white"/>
</svg>
