<svg width="64" height="64" viewBox="0 0 64 64" fill="none" xmlns="http://www.w3.org/2000/svg">
<path d="M32.9854 9.548C35.4409 9.5105 37.8784 9.53 40.3144 9.5105C40.3954 12.557 41.6314 15.299 43.5979 17.33L43.5949 17.327C45.7114 19.2335 48.4654 20.4695 51.5014 20.6795L51.5434 20.6825V28.2365C48.6754 28.1645 45.9784 27.503 43.5469 26.366L43.6699 26.417C42.4939 25.8515 41.4994 25.271 40.5544 24.623L40.6324 24.674C40.6144 30.1475 40.6504 35.621 40.5949 41.075C40.4404 43.8545 39.5164 46.3895 38.0344 48.506L38.0644 48.4595C35.5864 52.0085 31.5724 54.338 27.0079 54.476H26.9869C26.8024 54.485 26.5849 54.4895 26.3659 54.4895C23.7709 54.4895 21.3454 53.7665 19.2784 52.511L19.3384 52.5455C15.5764 50.282 12.9814 46.409 12.5014 41.9045L12.4954 41.843C12.4579 40.9055 12.4399 39.968 12.4774 39.05C13.2124 31.8815 19.2184 26.336 26.5189 26.336C27.3394 26.336 28.1434 26.4065 28.9249 26.54L28.8409 26.528C28.8784 29.3015 28.7659 32.0765 28.7659 34.85C28.1314 34.6205 27.3994 34.487 26.6359 34.487C23.8339 34.487 21.4504 36.278 20.5684 38.7785L20.5549 38.8235C20.3554 39.464 20.2399 40.2005 20.2399 40.9625C20.2399 41.2715 20.2594 41.5775 20.2954 41.8775L20.2924 41.8415C20.7904 44.9105 23.4214 47.2265 26.5939 47.2265C26.6854 47.2265 26.7754 47.225 26.8654 47.2205H26.8519C29.0464 47.1545 30.9514 45.974 32.0284 44.2295L32.0434 44.2025C32.4439 43.6445 32.7184 42.9695 32.8099 42.236L32.8114 42.215C32.9989 38.8595 32.9239 35.5235 32.9419 32.168C32.9599 24.614 32.9239 17.078 32.9794 9.5435L32.9854 9.548Z" fill="white"/>
</svg>
