<svg width="64" height="64" viewBox="0 0 64 64" fill="none" xmlns="http://www.w3.org/2000/svg">
<path d="M23.4607 20.1874C23.7761 20.0269 24.146 19.9919 24.9611 20.0505C25.5557 20.091 26.1405 20.1734 26.2605 20.2306C26.3806 20.2878 26.657 20.7749 26.8747 21.3123C27.0938 21.8497 27.5614 23.0905 27.9131 24.069C28.2662 25.0474 28.5552 26.037 28.5552 26.2673C28.5552 26.5604 28.3458 26.9484 27.8587 27.5584C27.4749 28.0385 26.9892 28.6374 26.3918 29.352L26.6709 29.9368C26.8245 30.2592 27.2362 30.9627 27.5851 31.5001C27.9355 32.0388 28.6319 32.9181 29.1357 33.4555C29.6396 33.9928 30.6264 34.8415 31.3285 35.3398C32.0306 35.8381 33.0914 36.5137 33.686 36.8389C34.2806 37.1641 34.9227 37.4335 35.1153 37.4377C35.3833 37.4432 35.777 37.1067 36.8251 35.9735C37.7798 34.942 38.2795 34.5023 38.5001 34.5023C38.6733 34.5038 39.6936 34.9477 40.7682 35.4892C41.8429 36.0321 43.0935 36.7076 44.3706 37.5032L44.2883 38.2709C44.2436 38.6924 44.1026 39.3847 43.9756 39.8062C43.7955 40.3994 43.5638 40.7498 42.9538 41.3514C42.3314 41.9627 41.9126 42.2279 40.9775 42.5991C39.9475 43.0067 39.625 43.0695 38.535 43.0751C37.4365 43.0807 37.0861 43.0151 35.7434 42.5546C34.899 42.2642 33.3916 41.6291 32.3936 41.1434C31.3956 40.6577 30.0459 39.8663 29.3927 39.3861C28.7395 38.9074 27.6479 37.9415 26.964 37.2408C26.2815 36.5402 25.056 35.0802 24.2422 33.9943C23.4285 32.9098 22.4516 31.4959 22.0705 30.8538C21.6894 30.2118 21.1953 29.1537 20.972 28.5005C20.7501 27.8473 20.5337 26.8744 20.4947 26.3371C20.4458 25.6964 20.4988 24.9999 20.6481 24.3132C20.7849 23.6865 21.0753 22.93 21.374 22.4289C21.6489 21.9683 22.136 21.3235 22.4571 20.9969C22.7781 20.6689 23.2304 20.3046 23.4607 20.1874Z" fill="white"/>
<path fill-rule="evenodd" clip-rule="evenodd" d="M32.0446 8.00087C33.1654 7.9897 34.2597 8.08598 35.6736 8.32186C36.7875 8.5089 38.3884 8.88856 39.2328 9.16491C40.0773 9.44267 41.4284 9.98435 42.2337 10.3696C43.0391 10.7548 44.3902 11.528 45.2346 12.0877C46.0791 12.6474 47.3604 13.665 48.0806 14.3475C48.8022 15.0314 49.7513 16.0293 50.1896 16.5667C50.6279 17.1041 51.3174 18.0462 51.7194 18.6604C52.1213 19.2745 52.7828 20.4679 53.189 21.3123C53.5952 22.1568 54.1256 23.445 54.3671 24.1736C54.61 24.9022 54.9449 26.1277 55.1124 26.8954C55.3748 28.0999 55.4167 28.7211 55.4167 31.4316C55.4167 34.1422 55.3748 34.7633 55.1124 35.9679C54.9449 36.7355 54.61 37.9596 54.3671 38.6896C54.1256 39.4196 53.5952 40.7065 53.189 41.5509C52.7829 42.3954 52.1214 43.5888 51.7194 44.2029C51.3174 44.817 50.6279 45.7592 50.1896 46.2966C49.7513 46.8339 48.8022 47.832 48.0806 48.5159C47.3604 49.1984 46.0791 50.2158 45.2346 50.7756C44.3902 51.3352 43.0391 52.1086 42.2337 52.4925C41.4284 52.8763 40.2029 53.3801 39.512 53.6118C38.8211 53.8435 37.6277 54.1646 36.86 54.3251C36.0924 54.4856 34.6784 54.6753 33.7196 54.7465C32.6002 54.8289 31.3747 54.8261 30.2999 54.7354C29.3787 54.6586 28.0276 54.4688 27.299 54.3139C26.5705 54.1604 25.4078 53.8435 24.7169 53.6104C24.026 53.3773 22.8633 52.9041 20.8087 51.9257L14.458 53.965C10.9655 55.0854 8.06162 56.0008 8.00254 56C7.94532 55.9986 8.84 53.2028 12.0852 43.5748L11.3272 42.0744C10.9098 41.2495 10.3167 39.8202 10.0096 38.899C9.70257 37.9778 9.35635 36.7523 9.23911 36.1772C9.12326 35.6008 8.95441 34.4074 8.86508 33.5253C8.77296 32.6069 8.74229 31.2934 8.79393 30.4546C8.84418 29.6478 8.95155 28.5494 9.0311 28.012C9.11066 27.4746 9.30479 26.5018 9.46251 25.8486C9.62024 25.1953 9.96489 24.0969 10.2287 23.406C10.4925 22.7151 10.9922 21.5845 11.3397 20.8936C11.6873 20.2027 12.3698 19.04 12.8569 18.3114C13.3426 17.5828 14.1383 16.5374 14.6226 15.9889C15.1084 15.4418 16.0073 14.5415 16.6214 13.9901C17.2356 13.4374 18.3033 12.6069 18.9942 12.1421C19.6851 11.6787 20.9092 10.9683 21.716 10.5635C22.5227 10.1588 23.8096 9.60737 24.5773 9.33938C25.345 9.07 26.6012 8.72248 27.3688 8.56476C28.1365 8.40704 29.1415 8.21858 29.602 8.14739C30.0627 8.07621 31.1626 8.01064 32.0446 8.00087ZM32.9519 11.9858C32.261 11.9509 31.1304 11.9747 30.4395 12.0389C29.7486 12.1031 28.7116 12.2593 28.1365 12.3864C27.5601 12.5148 26.6179 12.7744 26.0428 12.9657C25.4664 13.1569 24.4307 13.5826 23.7398 13.912C23.0489 14.2414 21.8862 14.9086 21.1577 15.3943C20.3872 15.908 19.244 16.8654 18.4303 17.6777C17.5817 18.5264 16.6619 19.629 16.0994 20.4749C15.5885 21.2425 14.892 22.468 14.5515 23.1966C14.2109 23.9252 13.7642 25.0558 13.559 25.709C13.3553 26.3622 13.0845 27.4607 12.9589 28.1516C12.8137 28.9555 12.7327 30.1615 12.7341 31.5014C12.7355 32.8916 12.8165 34.018 12.9756 34.8513C13.1068 35.5422 13.3665 36.6099 13.5507 37.2241C13.7364 37.8382 14.2108 39.0009 14.6072 39.8062C15.0022 40.6116 15.5703 41.6333 15.869 42.0744L16.412 42.8769C14.5726 48.2849 14.0547 49.8903 14.0741 49.9325C14.0937 49.9744 15.71 49.5041 17.6682 48.8872C19.6265 48.2702 21.3056 47.7649 21.4019 47.7635C21.4983 47.7621 21.8123 47.9101 22.0998 48.0916C22.3874 48.273 23.0936 48.6569 23.67 48.9458C24.2451 49.2347 25.345 49.6813 26.1126 49.9367C26.8803 50.1921 28.1058 50.5076 28.8344 50.6346C29.6509 50.7784 30.9113 50.8677 32.1144 50.8677C33.3176 50.8677 34.578 50.7784 35.3945 50.6346C36.1245 50.5076 37.3486 50.1921 38.1162 49.9367C38.8839 49.6813 40.108 49.1719 40.838 48.8076C41.568 48.4419 42.6036 47.8472 43.141 47.4843C43.6784 47.1228 44.5577 46.4487 45.0951 45.9867C45.6324 45.5247 46.4559 44.683 46.9248 44.1163C47.3938 43.5497 48.0624 42.6466 48.4114 42.1092C48.7603 41.5719 49.3367 40.5362 49.6926 39.8062C50.05 39.0762 50.5245 37.8843 50.7506 37.1543C50.9754 36.4243 51.2559 35.263 51.3745 34.5721C51.4946 33.8686 51.5881 32.4868 51.5881 31.4316C51.5881 30.3764 51.4946 28.9946 51.3745 28.2912C51.2559 27.6002 50.9754 26.4376 50.7506 25.709C50.5245 24.9804 50.05 23.7856 49.6926 23.057C49.3367 22.3284 48.7603 21.2914 48.4114 20.754C48.0624 20.2166 47.3938 19.3136 46.9248 18.7469C46.4558 18.1802 45.6324 17.3385 45.0951 16.8765C44.5577 16.4145 43.6784 15.7405 43.141 15.3789C42.6036 15.016 41.568 14.4214 40.838 14.0557C40.108 13.6914 38.8839 13.182 38.1162 12.9265C37.3486 12.6711 36.1552 12.3683 35.4643 12.2552C34.7734 12.1422 33.6428 12.0207 32.9519 11.9858Z" fill="white"/>
</svg>
