<svg width="64" height="64" viewBox="0 0 64 64" fill="none" xmlns="http://www.w3.org/2000/svg">
<path fill-rule="evenodd" clip-rule="evenodd" d="M53.9874 14.135C56.3552 14.7606 58.2162 16.5971 58.85 18.9342C59.9954 23.1658 60 32 60 32C60 32 60 40.8342 58.85 45.0659C58.2162 47.4029 56.3552 49.2395 53.9874 49.8649C49.7 51 32.4999 51 32.4999 51C32.4999 51 15.3 51 11.0125 49.8649C8.64464 49.2395 6.78383 47.4029 6.14998 45.0659C5 40.8342 5 32 5 32C5 32 5 23.1658 6.14998 18.9342C6.78383 16.5971 8.64464 14.7606 11.0125 14.135C15.3 13 32.4999 13 32.4999 13C32.4999 13 49.7 13 53.9874 14.135ZM41.2835 32.0008L26.9947 40.1423V23.8591L41.2835 32.0008Z" fill="white"/>
</svg>
