<svg width="24" height="24" viewBox="0 0 24 24" fill="none" xmlns="http://www.w3.org/2000/svg">
<g clip-path="url(#clip0_235_36)">
<path fill-rule="evenodd" clip-rule="evenodd" d="M19 3C19.5499 3 20.0205 3.19634 20.4121 3.58789C20.8037 3.9795 20.9999 4.4501 21 5V19C21 19.55 20.8038 20.0214 20.4121 20.4131C20.0205 20.8045 19.5498 21 19 21H5C4.45019 21 3.97947 20.8045 3.58789 20.4131C3.19622 20.0214 3 19.55 3 19V5C3.00006 4.4501 3.19628 3.9795 3.58789 3.58789C3.97952 3.1963 4.45008 3.00002 5 3H19ZM16.7803 8.28027C16.4874 7.98765 16.0126 7.98759 15.7197 8.28027L10.9541 13.0469C10.7588 13.2421 10.4414 13.2421 10.2461 13.0469L8.28027 11.0811C7.98738 10.7882 7.51262 10.7882 7.21973 11.0811L6.88086 11.4199C6.58797 11.7128 6.58797 12.1876 6.88086 12.4805L10.0693 15.6699C10.3622 15.9628 10.838 15.9628 11.1309 15.6699L17.1201 9.68066C17.4128 9.38785 17.4127 8.91299 17.1201 8.62012L16.7803 8.28027Z" fill="#00C071"/>
<path d="M16.7803 8.28027C16.4874 7.98765 16.0126 7.98759 15.7197 8.28027L10.9541 13.0469C10.7588 13.2421 10.4414 13.2421 10.2461 13.0469L8.28027 11.0811C7.98738 10.7882 7.51262 10.7882 7.21973 11.0811L6.88086 11.4199C6.58797 11.7128 6.58797 12.1876 6.88086 12.4805L10.0693 15.6699C10.3622 15.9628 10.838 15.9628 11.1309 15.6699L17.1201 9.68066C17.4128 9.38785 17.4127 8.91299 17.1201 8.62012L16.7803 8.28027Z" fill="white"/>
</g>
<defs>
<clipPath id="clip0_235_36">
<rect x="3" y="3" width="18" height="18" rx="2.5" fill="white"/>
</clipPath>
</defs>
</svg>
