<svg width="64" height="64" viewBox="0 0 64 64" fill="none" xmlns="http://www.w3.org/2000/svg">
<path d="M34.7851 5C46.5018 5 56 14.4612 56 26.1321C56 33.3698 52.346 39.7554 46.7765 43.564C45.1553 44.5 44.5137 46.6207 44.5 48.3208V56C44.5 57.1671 43.5502 58.1132 42.3785 58.1132H24.1777C23.0062 58.113 22.0562 57.167 22.0562 56V52.5472C22.0536 51.869 21.9531 50.7953 21.734 50.0535L16.205 49C13.2927 48.6874 11.1861 46.0824 11.5 43.1815L11.803 36.142L9.06106 34.5653C7.99095 33.9499 7.67324 32.5567 8.37116 31.541L13.7008 23.7857C14.8726 13.2192 23.8649 5.00021 34.7851 5Z" fill="#02634D"/>
<mask id="mask0_285_29" style="mask-type:alpha" maskUnits="userSpaceOnUse" x="35" y="12" width="13" height="13">
<rect x="35.78" y="12.86" width="11.48" height="11.48" fill="#D9D9D9" stroke="white" stroke-width="0.28"/>
</mask>
<g mask="url(#mask0_285_29)">
<path d="M44.7027 15.1487C44.8667 14.9847 45.1334 14.9847 45.2974 15.1487L45.9507 15.803C46.1147 15.967 46.1147 16.2327 45.9507 16.3967L40.6734 21.6741C40.5094 21.8381 40.2436 21.8381 40.0796 21.6741L37.4419 19.0374C37.2779 18.8733 37.2779 18.6066 37.4419 18.4426L38.0962 17.7893C38.2602 17.6253 38.526 17.6253 38.69 17.7893L40.2779 19.3762C40.3325 19.4309 40.4214 19.4309 40.4761 19.3762L44.7027 15.1487Z" fill="white" stroke="white" stroke-width="0.28"/>
</g>
<path d="M32 28C30.9 28 29.9583 27.6083 29.175 26.825C28.3917 26.0417 28 25.1 28 24C28 22.9 28.3917 21.9583 29.175 21.175C29.9583 20.3917 30.9 20 32 20C33.1 20 34.0417 20.3917 34.825 21.175C35.6083 21.9583 36 22.9 36 24C36 25.1 35.6083 26.0417 34.825 26.825C34.0417 27.6083 33.1 28 32 28ZM24 36V33.2C24 32.6333 24.1458 32.1125 24.4375 31.6375C24.7292 31.1625 25.1167 30.8 25.6 30.55C26.6333 30.0333 27.6833 29.6458 28.75 29.3875C29.8167 29.1292 30.9 29 32 29C33.1 29 34.1833 29.1292 35.25 29.3875C36.3167 29.6458 37.3667 30.0333 38.4 30.55C38.8833 30.8 39.2708 31.1625 39.5625 31.6375C39.8542 32.1125 40 32.6333 40 33.2V36H24Z" fill="#1C1B1F"/>
<path fill-rule="evenodd" clip-rule="evenodd" d="M32 28C30.9 28 29.9583 27.6083 29.175 26.825C28.3917 26.0417 28 25.1 28 24C28 22.9 28.3917 21.9583 29.175 21.175C29.9583 20.3917 30.9 20 32 20C33.1 20 34.0417 20.3917 34.825 21.175C35.6083 21.9583 36 22.9 36 24C36 25.1 35.6083 26.0417 34.825 26.825C34.0417 27.6083 33.1 28 32 28ZM24 36V33.2C24 32.6333 24.1458 32.1125 24.4375 31.6375C24.7292 31.1625 25.1167 30.8 25.6 30.55C26.6333 30.0333 27.6833 29.6458 28.75 29.3875C29.8167 29.1292 30.9 29 32 29C33.1 29 34.1833 29.1292 35.25 29.3875C36.3167 29.6458 37.3667 30.0333 38.4 30.55C38.8833 30.8 39.2708 31.1625 39.5625 31.6375C39.8542 32.1125 40 32.6333 40 33.2V36H24Z" fill="white"/>
</svg>
