<svg width="64" height="64" viewBox="0 0 64 64" fill="none" xmlns="http://www.w3.org/2000/svg">
<rect x="14" y="8" width="36" height="48" rx="2.5" fill="#02634D"/>
<rect x="20" y="14" width="24" height="36" rx="1" fill="white"/>
<path d="M32 26.5C30.9 26.5 29.9583 26.092 29.175 25.276C28.3917 24.4601 28 23.4792 28 22.3333C28 21.1875 28.3917 20.2066 29.175 19.3906C29.9583 18.5746 30.9 18.1667 32 18.1667C33.1 18.1667 34.0417 18.5746 34.825 19.3906C35.6083 20.2066 36 21.1875 36 22.3333C36 23.4792 35.6083 24.4601 34.825 25.276C34.0417 26.092 33.1 26.5 32 26.5ZM24 34.8333V31.9167C24 31.3264 24.1458 30.7838 24.4375 30.289C24.7292 29.7943 25.1167 29.4167 25.6 29.1562C26.6333 28.618 27.6833 28.2144 28.75 27.9453C29.8167 27.6762 30.9 27.5417 32 27.5417C33.1 27.5417 34.1833 27.6762 35.25 27.9453C36.3167 28.2144 37.3667 28.618 38.4 29.1562C38.8833 29.4167 39.2708 29.7943 39.5625 30.289C39.8542 30.7838 40 31.3264 40 31.9167V34.8333H24Z" fill="#1C1B1F"/>
<path fill-rule="evenodd" clip-rule="evenodd" d="M32 26.5C30.9 26.5 29.9583 26.092 29.175 25.276C28.3917 24.4601 28 23.4792 28 22.3333C28 21.1875 28.3917 20.2066 29.175 19.3906C29.9583 18.5746 30.9 18.1667 32 18.1667C33.1 18.1667 34.0417 18.5746 34.825 19.3906C35.6083 20.2066 36 21.1875 36 22.3333C36 23.4792 35.6083 24.4601 34.825 25.276C34.0417 26.092 33.1 26.5 32 26.5ZM24 34.8333V31.9167C24 31.3264 24.1458 30.7838 24.4375 30.289C24.7292 29.7943 25.1167 29.4167 25.6 29.1562C26.6333 28.618 27.6833 28.2144 28.75 27.9453C29.8167 27.6762 30.9 27.5417 32 27.5417C33.1 27.5417 34.1833 27.6762 35.25 27.9453C36.3167 28.2144 37.3667 28.618 38.4 29.1562C38.8833 29.4167 39.2708 29.7943 39.5625 30.289C39.8542 30.7838 40 31.3264 40 31.9167V34.8333H24Z" fill="#02634D"/>
<rect x="24" y="38" width="16" height="2" rx="1" fill="#02634D"/>
<rect x="24" y="42" width="12" height="2" rx="1" fill="#02634D"/>
<path d="M25 9C25 8.44772 25.4477 8 26 8H38C38.5523 8 39 8.44772 39 9V11C39 11.5523 38.5523 12 38 12H26C25.4477 12 25 11.5523 25 11V9Z" fill="white"/>
<path d="M25 11C25 11.5523 25.4477 12 26 12H38L38.1025 11.9951C38.573 11.9472 38.9472 11.573 38.9951 11.1025L39 11V9C39 8.48232 38.6067 8.05621 38.1025 8.00488L38 8V5C40.2091 5 42 6.79086 42 9V11C42 13.2091 40.2091 15 38 15H26C23.7909 15 22 13.2091 22 11V9C22 6.79086 23.7909 5 26 5V8C25.4477 8 25 8.44772 25 9V11ZM38 5V8H26V5H38Z" fill="#02634D"/>
</svg>
