<svg width="64" height="64" viewBox="0 0 64 64" fill="none" xmlns="http://www.w3.org/2000/svg">
<rect x="64" y="5" width="42.6667" height="64" rx="3.33333" transform="rotate(90 64 5)" fill="#02634D"/>
<rect x="58.6667" y="10.3333" width="32" height="53.3333" rx="1.33333" transform="rotate(90 58.6667 10.3333)" fill="white"/>
<path d="M32 26.3404C30.5334 26.3404 29.2778 25.8071 28.2334 24.7404C27.1889 23.6737 26.6667 22.3915 26.6667 20.8936C26.6667 19.3957 27.1889 18.1135 28.2334 17.0468C29.2778 15.9801 30.5334 15.4468 32 15.4468C33.4667 15.4468 34.7222 15.9801 35.7667 17.0468C36.8111 18.1135 37.3334 19.3957 37.3334 20.8936C37.3334 22.3915 36.8111 23.6737 35.7667 24.7404C34.7222 25.8071 33.4667 26.3404 32 26.3404ZM21.3334 37.234V33.4213C21.3334 32.6496 21.5278 31.9404 21.9167 31.2936C22.3056 30.6468 22.8222 30.1532 23.4667 29.8127C24.8445 29.1092 26.2445 28.5815 27.6667 28.2298C29.0889 27.878 30.5334 27.7021 32 27.7021C33.4667 27.7021 34.9111 27.878 36.3334 28.2298C37.7556 28.5815 39.1556 29.1092 40.5334 29.8127C41.1778 30.1532 41.6945 30.6468 42.0834 31.2936C42.4722 31.9404 42.6667 32.6496 42.6667 33.4213V37.234H21.3334Z" fill="#1C1B1F"/>
<path fill-rule="evenodd" clip-rule="evenodd" d="M32 26.3404C30.5334 26.3404 29.2778 25.8071 28.2334 24.7404C27.1889 23.6737 26.6667 22.3915 26.6667 20.8936C26.6667 19.3957 27.1889 18.1135 28.2334 17.0468C29.2778 15.9801 30.5334 15.4468 32 15.4468C33.4667 15.4468 34.7222 15.9801 35.7667 17.0468C36.8111 18.1135 37.3334 19.3957 37.3334 20.8936C37.3334 22.3915 36.8111 23.6737 35.7667 24.7404C34.7222 25.8071 33.4667 26.3404 32 26.3404ZM21.3334 37.234V33.4213C21.3334 32.6496 21.5278 31.9404 21.9167 31.2936C22.3056 30.6468 22.8222 30.1532 23.4667 29.8127C24.8445 29.1092 26.2445 28.5815 27.6667 28.2298C29.0889 27.878 30.5334 27.7021 32 27.7021C33.4667 27.7021 34.9111 27.878 36.3334 28.2298C37.7556 28.5815 39.1556 29.1092 40.5334 29.8127C41.1778 30.1532 41.6945 30.6468 42.0834 31.2936C42.4722 31.9404 42.6667 32.6496 42.6667 33.4213V37.234H21.3334Z" fill="#02634D"/>
<rect x="16" y="57" width="32" height="5" rx="2.5" fill="#02634D"/>
<rect x="24" y="49" width="3" height="7" rx="1.5" fill="#02634D"/>
<rect x="37" y="49" width="3" height="7" rx="1.5" fill="#02634D"/>
</svg>
