<svg width="64" height="64" viewBox="0 0 64 64" fill="none" xmlns="http://www.w3.org/2000/svg">
<rect x="64" y="8" width="48" height="64" rx="5" transform="rotate(90 64 8)" fill="#02634D"/>
<rect x="10.6667" y="13.3335" width="48" height="2.66667" rx="1.33333" fill="white"/>
<rect x="5.33328" y="13.3335" width="2.66667" height="2.66667" rx="1.33333" fill="white"/>
<rect y="21.3335" width="64" height="2.66667" fill="white"/>
<path d="M13.3334 38.6667C12.376 38.6667 11.5564 38.3185 10.8746 37.6222C10.1928 36.9259 9.85194 36.0889 9.85194 35.1111C9.85194 34.1333 10.1928 33.2963 10.8746 32.6C11.5564 31.9037 12.376 31.5555 13.3334 31.5555C14.2908 31.5555 15.1104 31.9037 15.7922 32.6C16.474 33.2963 16.8149 34.1333 16.8149 35.1111C16.8149 36.0889 16.474 36.9259 15.7922 37.6222C15.1104 38.3185 14.2908 38.6667 13.3334 38.6667ZM6.37046 45.7778V43.2889C6.37046 42.7852 6.49739 42.3222 6.75125 41.9C7.00511 41.4778 7.34237 41.1555 7.76305 40.9333C8.66243 40.4741 9.57632 40.1296 10.5047 39.9C11.4331 39.6704 12.376 39.5555 13.3334 39.5555C14.2908 39.5555 15.2337 39.6704 16.1621 39.9C17.0905 40.1296 18.0044 40.4741 18.9038 40.9333C19.3245 41.1555 19.6617 41.4778 19.9156 41.9C20.1695 42.3222 20.2964 42.7852 20.2964 43.2889V45.7778H6.37046Z" fill="#1C1B1F"/>
<path fill-rule="evenodd" clip-rule="evenodd" d="M13.3334 38.6667C12.376 38.6667 11.5564 38.3185 10.8746 37.6222C10.1928 36.9259 9.85194 36.0889 9.85194 35.1111C9.85194 34.1333 10.1928 33.2963 10.8746 32.6C11.5564 31.9037 12.376 31.5555 13.3334 31.5555C14.2908 31.5555 15.1104 31.9037 15.7922 32.6C16.474 33.2963 16.8149 34.1333 16.8149 35.1111C16.8149 36.0889 16.474 36.9259 15.7922 37.6222C15.1104 38.3185 14.2908 38.6667 13.3334 38.6667ZM6.37046 45.7778V43.2889C6.37046 42.7852 6.49739 42.3222 6.75125 41.9C7.00511 41.4778 7.34237 41.1555 7.76305 40.9333C8.66243 40.4741 9.57632 40.1296 10.5047 39.9C11.4331 39.6704 12.376 39.5555 13.3334 39.5555C14.2908 39.5555 15.2337 39.6704 16.1621 39.9C17.0905 40.1296 18.0044 40.4741 18.9038 40.9333C19.3245 41.1555 19.6617 41.4778 19.9156 41.9C20.1695 42.3222 20.2964 42.7852 20.2964 43.2889V45.7778H6.37046Z" fill="white"/>
<rect x="25.3333" y="32" width="32" height="2.66667" rx="1.33333" fill="white"/>
<rect x="25.3333" y="37.3335" width="32" height="2.66667" rx="1.33333" fill="white"/>
<rect x="25.3333" y="42.6665" width="21.3333" height="2.66667" rx="1.33333" fill="white"/>
</svg>
