<svg width="128" height="72" viewBox="0 0 128 72" fill="none" xmlns="http://www.w3.org/2000/svg">
<path d="M110.927 53.1184L13.7895 61.0767C11.5888 61.0767 9.80469 59.4213 9.80469 57.3794L16.7279 18.2098C16.7279 16.1679 18.5119 14.5126 20.7127 14.5126L104.909 17.3895C107.11 17.3895 108.894 19.0448 108.894 21.0867L114.912 49.4211C114.912 51.463 113.128 53.1184 110.927 53.1184Z" fill="#042223"/>
<path d="M113.387 48.2481L18.977 55.983C16.8379 55.983 15.104 54.3742 15.104 52.3895L21.8326 14.3198C21.8326 12.3354 23.5666 10.7266 25.7053 10.7266L107.538 13.5224C109.676 13.5224 111.411 15.1312 111.411 17.116L117.26 44.6545C117.26 46.6393 115.526 48.2481 113.387 48.2481Z" fill="#02634D"/>
<path d="M76.8181 40.3607L76.2216 39.8072L75.4951 40.481L76.0919 41.0344C76.1596 41.0976 76.1969 41.1814 76.1969 41.2704C76.1969 41.3595 76.1596 41.4433 76.0919 41.5064L70.6322 46.5722C70.4918 46.7022 70.2639 46.7022 70.1235 46.5722L64.6641 41.5064C64.5237 41.3761 64.5237 41.1647 64.6641 41.0344L70.1235 35.969C70.2639 35.8387 70.4918 35.8387 70.6322 35.969L71.6776 36.939L72.4038 36.2648L71.3584 35.2949C70.8178 34.7933 69.9379 34.7933 69.3973 35.2949L63.9376 40.3607C63.397 40.8623 63.397 41.6786 63.9376 42.1802L69.3973 47.246C69.6678 47.4969 70.0228 47.6223 70.3779 47.6223C70.7329 47.6223 71.0883 47.4969 71.3584 47.246L76.8181 42.1802C77.08 41.9372 77.2244 41.6141 77.2244 41.2704C77.2244 40.9267 77.08 40.6036 76.8181 40.3607Z" fill="#00DF83"/>
<path d="M68.8213 39.9069L67.6169 41.0357L70.2984 43.4988L76.71 36.9715L75.4446 35.9015L70.235 41.2052L68.8213 39.9069Z" fill="#00DF83"/>
<path d="M31.317 22.4338V21.0603C31.317 20.7691 31.2052 20.5195 30.981 20.3114C30.7567 20.1033 30.4873 19.9989 30.1735 19.9989H30.0162C29.7024 19.9989 29.433 20.1033 29.2087 20.3114C28.9844 20.5195 28.8727 20.7691 28.8727 21.0603V29.0924C28.8727 29.3836 28.9844 29.6332 29.2087 29.8416C29.433 30.0497 29.7024 30.1537 30.0162 30.1537H30.1735C30.4873 30.1537 30.7567 30.0497 30.981 29.8416C31.2052 29.6332 31.317 29.3836 31.317 29.0924V27.7189H33.6943V29.0924C33.6943 29.9942 33.3504 30.7643 32.6626 31.4019C31.9747 32.0401 31.145 32.3592 30.1735 32.3592H30.0162C29.0443 32.3592 28.2146 32.0401 27.5271 31.4019C26.8392 30.7643 26.4953 29.9942 26.4953 29.0924V21.0603C26.4953 20.1588 26.8392 19.3886 27.5271 18.7504C28.2146 18.1126 29.0443 17.7935 30.0162 17.7935H30.1735C31.145 17.7935 31.9747 18.1126 32.6626 18.7504C33.3504 19.3886 33.6943 20.1588 33.6943 21.0603V22.4338H31.317Z" fill="#F1F7F7"/>
<path d="M42.5973 17.7935V29.0924C42.5973 29.9942 42.2534 30.764 41.5659 31.4019C40.8781 32.0401 40.0484 32.3592 39.0764 32.3592H38.9195C37.9476 32.3592 37.1175 32.0401 36.43 31.4019C35.7422 30.764 35.3983 29.9942 35.3983 29.0924V17.7935H37.7756V29.0924C37.7756 29.3836 37.8877 29.6332 38.112 29.8416C38.3363 30.0497 38.6053 30.1538 38.9195 30.1538H39.0764C39.3906 30.1538 39.6596 30.0497 39.8839 29.8416C40.1082 29.6332 40.2203 29.3836 40.2203 29.0924V17.7935H42.5973Z" fill="#F1F7F7"/>
<path d="M49.1458 22.6834L49.168 20.9772C49.168 20.6857 49.0559 20.436 48.8316 20.228C48.6074 20.0199 48.3383 19.9158 48.0241 19.9158H47.0823V23.8903H48.0019C48.3161 23.8903 48.5851 23.7863 48.8094 23.5779C49.0337 23.3698 49.1458 23.1202 49.1458 22.829V22.6834ZM50.6483 24.9929C51.2459 25.6175 51.5454 26.3388 51.5454 27.1571L51.5231 31.2566V32.3592H49.1458V31.0901L49.168 27.1571C49.168 26.866 49.0559 26.6163 48.8316 26.4083C48.6074 26.1998 48.3383 26.0961 48.0241 26.0961H47.0823V32.2761H44.7053V17.7104H48.0241C48.9961 17.7104 49.8258 18.0295 50.5136 18.6673C51.2011 19.3056 51.5454 20.0754 51.5454 20.9772L51.5231 22.829C51.5231 23.6477 51.2312 24.3687 50.6483 24.9929Z" fill="#F1F7F7"/>
<path d="M58.0265 22.6834L58.0487 20.9772C58.0487 20.6857 57.9369 20.436 57.7127 20.228C57.4884 20.0199 57.219 19.9158 56.9052 19.9158H55.9633V23.8903H56.883C57.1968 23.8903 57.4662 23.7863 57.6904 23.5779C57.9147 23.3698 58.0265 23.1202 58.0265 22.829V22.6834ZM59.529 24.9929C60.1269 25.6175 60.426 26.3388 60.426 27.1571L60.4038 31.2566V32.3592H58.0265V31.0901L58.0487 27.1571C58.0487 26.866 57.9369 26.6163 57.7127 26.4083C57.4884 26.1998 57.219 26.0961 56.9052 26.0961H55.9633V32.2761H53.586V17.7104H56.9052C57.8767 17.7104 58.7064 18.0295 59.3943 18.6673C60.0821 19.3056 60.426 20.0754 60.426 20.9772L60.4038 22.829C60.4038 23.6477 60.1122 24.3687 59.529 24.9929Z" fill="#F1F7F7"/>
<path d="M62.467 17.7935H64.8443V32.3593H62.467V17.7935Z" fill="#F1F7F7"/>
<path d="M71.6841 22.4338V21.0603C71.6841 20.7691 71.5719 20.5195 71.3477 20.3114C71.1234 20.1033 70.8544 19.9989 70.5402 19.9989H70.3833C70.0691 19.9989 69.8 20.1033 69.5758 20.3114C69.3515 20.5195 69.2394 20.7691 69.2394 21.0603V29.0924C69.2394 29.3836 69.3515 29.6332 69.5758 29.8416C69.8 30.0497 70.0691 30.1537 70.3833 30.1537H70.5402C70.8544 30.1537 71.1234 30.0497 71.3477 29.8416C71.5719 29.6332 71.6841 29.3836 71.6841 29.0924V27.7189H74.0614V29.0924C74.0614 29.9942 73.7171 30.7643 73.0296 31.4019C72.3418 32.0401 71.5121 32.3592 70.5402 32.3592H70.3833C69.411 32.3592 68.5813 32.0401 67.8938 31.4019C67.2059 30.7643 66.862 29.9942 66.862 29.0924V21.0603C66.862 20.1588 67.2059 19.3886 67.8938 18.7504C68.5813 18.1126 69.411 17.7935 70.3833 17.7935H70.5402C71.5121 17.7935 72.3418 18.1126 73.0296 18.7504C73.7171 19.3886 74.0614 20.1588 74.0614 21.0603V22.4338H71.6841Z" fill="#F1F7F7"/>
<path d="M82.9644 17.7935V29.0924C82.9644 29.9942 82.6201 30.764 81.9326 31.4019C81.2448 32.0401 80.4151 32.3592 79.4435 32.3592H79.2862C78.3147 32.3592 77.4846 32.0401 76.7971 31.4019C76.1089 30.764 75.7654 29.9942 75.7654 29.0924V17.7935H78.1427V29.0924C78.1427 29.3836 78.2548 29.6332 78.4787 29.8416C78.703 30.0497 78.9724 30.1538 79.2862 30.1538H79.4435C79.7573 30.1538 80.0264 30.0497 80.251 29.8416C80.4753 29.6332 80.587 29.3836 80.587 29.0924V17.7935H82.9644Z" fill="#F1F7F7"/>
<path d="M90.7909 30.1536V32.3594H85.0722V17.7933H87.4495V30.1536H90.7909Z" fill="#F1F7F7"/>
<path d="M98.6175 30.1536C100.127 30.1536 101.417 29.658 102.486 28.6658C103.555 27.6742 104.089 26.4776 104.089 25.0765C104.089 23.6755 103.555 22.4788 102.486 21.487C101.417 20.4951 100.127 19.9991 98.6175 19.9991C97.1071 19.9991 95.8177 20.4951 94.7487 21.487C93.6801 22.4788 93.1456 23.6755 93.1456 25.0765C93.1456 26.4776 93.6801 27.6742 94.7487 28.6658C95.8177 29.658 97.1071 30.1536 98.6175 30.1536ZM94.6817 18.7713C95.8851 18.1194 97.197 17.7933 98.6175 17.7933C100.038 17.7933 101.35 18.1194 102.553 18.7713C103.757 19.4238 104.71 20.3079 105.413 21.4245C106.116 22.5413 106.467 23.7586 106.467 25.0765C106.467 26.3942 106.116 27.6117 105.413 28.7283C104.71 29.8451 103.757 30.7293 102.553 31.3811C101.35 32.0333 100.038 32.3594 98.6175 32.3594C97.197 32.3594 95.8851 32.0333 94.6817 31.3811C93.478 30.7293 92.5247 29.8451 91.8222 28.7283C91.1193 27.6117 90.7682 26.3942 90.7682 25.0765C90.7682 23.7586 91.1193 22.5413 91.8222 21.4245C92.5247 20.3079 93.478 19.4238 94.6817 18.7713Z" fill="#F1F7F7"/>
<path d="M30.4959 42.6135L29.7332 38.0221L29.0289 42.6135H30.4959ZM33.3909 47.6221H31.2976L30.809 44.5371H28.7358L28.2468 47.6221H26.1539L28.1293 34.9188H31.3371L33.3909 47.6221Z" fill="#F1F7F7"/>
<path d="M38.6324 37.7678C38.6324 37.5138 38.5346 37.2961 38.339 37.1146C38.1434 36.9331 37.9084 36.8424 37.635 36.8424H36.8132V41.2886H37.6153C37.889 41.2886 38.1237 41.1978 38.3193 41.0163C38.5149 40.8352 38.6127 40.6171 38.6127 40.3632V40.2362L38.6324 37.7678ZM37.635 34.9188C38.4823 34.9188 39.2063 35.197 39.8057 35.7535C40.4054 36.3099 40.7056 36.9817 40.7056 37.7678L40.6859 40.3632C40.6859 41.1496 40.386 41.8211 39.7863 42.3775C39.1866 42.9343 38.4626 43.2125 37.6153 43.2125H36.8132V47.6221H34.74V34.9188H37.635Z" fill="#F1F7F7"/>
<path d="M46.0059 39.1834L46.0256 37.6953C46.0256 37.4413 45.9278 37.2236 45.7322 37.0421C45.5366 36.8606 45.3019 36.7695 45.0282 36.7695H44.2068V40.2361H45.0085C45.2822 40.2361 45.5172 40.1454 45.7128 39.9639C45.9085 39.7824 46.0059 39.5643 46.0059 39.3104V39.1834ZM47.3164 41.1981C47.838 41.7422 48.0991 42.3714 48.0991 43.0851L48.0794 46.6604V47.6224H46.0059V46.5155L46.0256 43.0851C46.0256 42.8312 45.9278 42.6134 45.7322 42.4316C45.5366 42.2505 45.3019 42.1597 45.0282 42.1597H44.2068V47.5496H42.1332V34.8459H45.0282C45.8755 34.8459 46.5992 35.1245 47.1992 35.6809C47.7989 36.2377 48.0991 36.9088 48.0991 37.6953L48.0794 39.3104C48.0794 40.0244 47.8251 40.6536 47.3164 41.1981Z" fill="#F1F7F7"/>
<path d="M56.2356 45.6986C57.5525 45.6986 58.6771 45.2661 59.6096 44.4009C60.5418 43.536 61.0078 42.4923 61.0078 41.2704C61.0078 40.0485 60.5418 39.0051 59.6096 38.1398C58.6771 37.2749 57.5525 36.8422 56.2356 36.8422C54.9183 36.8422 53.7938 37.2749 52.8616 38.1398C51.9291 39.0051 51.463 40.0485 51.463 41.2704C51.463 42.4923 51.9291 43.536 52.8616 44.4009C53.7938 45.2661 54.9183 45.6986 56.2356 45.6986ZM52.8029 35.7715C53.8525 35.2031 54.9964 34.9186 56.2356 34.9186C57.4741 34.9186 58.6183 35.2031 59.668 35.7715C60.7177 36.3406 61.5488 37.1117 62.1621 38.0857C62.7747 39.0593 63.081 40.1213 63.081 41.2704C63.081 42.4201 62.7747 43.4815 62.1621 44.4554C61.5488 45.4293 60.7177 46.2008 59.668 46.7692C58.6183 47.3383 57.4741 47.6222 56.2356 47.6222C54.9964 47.6222 53.8525 47.3383 52.8029 46.7692C51.7528 46.2008 50.9217 45.4293 50.3091 44.4554C49.6958 43.4815 49.3898 42.4201 49.3898 41.2704C49.3898 40.1213 49.6958 39.0593 50.3091 38.0857C50.9217 37.1117 51.7528 36.3406 52.8029 35.7715Z" fill="#F1F7F7"/>
<path d="M81.4278 42.6135L80.6647 38.0221L79.9608 42.6135H81.4278ZM84.3225 47.6221H82.2296L81.7406 44.5371H79.6674L79.1784 47.6221H77.0855L79.0612 34.9188H82.269L84.3225 47.6221Z" fill="#F1F7F7"/>
<path d="M88.6642 36.8423H87.7452V45.6988H88.6642C88.9382 45.6988 89.1729 45.6077 89.3685 45.4262C89.5641 45.2447 89.6619 45.027 89.6619 44.773V37.7677C89.6619 37.5141 89.5641 37.296 89.3685 37.1146C89.1729 36.9331 88.9382 36.8423 88.6642 36.8423ZM88.6642 34.9187C89.5118 34.9187 90.2354 35.1969 90.8355 35.7537C91.4349 36.3098 91.7351 36.9816 91.7351 37.7677V44.773C91.7351 45.5598 91.4349 46.2309 90.8355 46.7874C90.2354 47.3441 89.5118 47.6224 88.6642 47.6224H85.6717V34.9187H88.6642Z" fill="#F1F7F7"/>
<path d="M99.8321 45.6986C101.149 45.6986 102.274 45.2661 103.206 44.4009C104.139 43.536 104.605 42.4923 104.605 41.2704C104.605 40.0485 104.139 39.0051 103.206 38.1398C102.274 37.2749 101.149 36.8422 99.8321 36.8422C98.5149 36.8422 97.3907 37.2749 96.4582 38.1398C95.5256 39.0051 95.0599 40.0485 95.0599 41.2704C95.0599 42.4923 95.5256 43.536 96.4582 44.4009C97.3907 45.2661 98.5149 45.6986 99.8321 45.6986ZM96.3997 35.7715C97.4491 35.2031 98.5933 34.9186 99.8321 34.9186C101.071 34.9186 102.215 35.2031 103.265 35.7715C104.315 36.3406 105.146 37.1117 105.759 38.0857C106.372 39.0593 106.678 40.1213 106.678 41.2704C106.678 42.4201 106.372 43.4815 105.759 44.4554C105.146 45.4293 104.315 46.2008 103.265 46.7692C102.215 47.3383 101.071 47.6222 99.8321 47.6222C98.5933 47.6222 97.4491 47.3383 96.3997 46.7692C95.3497 46.2008 94.5186 45.4293 93.906 44.4554C93.2927 43.4815 92.9867 42.4201 92.9867 41.2704C92.9867 40.1213 93.2927 39.0593 93.906 38.0857C94.5186 37.1117 95.3497 36.3406 96.3997 35.7715Z" fill="#F1F7F7"/>
<path d="M67.2411 14.46L64.2906 17.1977L63.3072 16.2852L66.2577 13.5476L67.2411 14.46Z" fill="#F1F7F7"/>
</svg>
