<svg width="48" height="48" viewBox="0 0 48 48" fill="none" xmlns="http://www.w3.org/2000/svg">
<path d="M39.0505 21.8514L37.6565 20.5444L35.9585 22.1356L37.3534 23.4426C37.5117 23.5917 37.5987 23.7895 37.5987 23.9999C37.5987 24.2103 37.5117 24.4081 37.3534 24.5572L24.5935 36.5203C24.2653 36.8272 23.7328 36.8272 23.4046 36.5203L10.6455 24.5572C10.3173 24.2495 10.3173 23.7503 10.6455 23.4426L23.4046 11.4803C23.7328 11.1726 24.2653 11.1726 24.5935 11.4803L27.0367 13.7709L28.7338 12.179L26.2907 9.8884C25.0272 8.70387 22.9709 8.70387 21.7075 9.8884L8.94757 21.8514C7.68414 23.0359 7.68414 24.9639 8.94757 26.1484L21.7075 38.1114C22.3396 38.7041 23.1693 39 23.9991 39C24.8288 39 25.6594 38.7041 26.2907 38.1114L39.0505 26.1484C39.6626 25.5746 40 24.8116 40 23.9999C40 23.1882 39.6626 22.4252 39.0505 21.8514Z" fill="#00DF83"/>
<path d="M20.3613 20.7798L17.5464 23.4456L23.8133 29.2622L38.7979 13.8477L35.8406 11.3208L23.6652 23.8459L20.3613 20.7798Z" fill="#00DF83"/>
</svg>
