<svg width="114" height="64" viewBox="0 0 114 64" fill="none" xmlns="http://www.w3.org/2000/svg">
<path d="M70.1848 43.9975L69.4379 43.3045L68.5282 44.1482L69.2755 44.8412C69.3603 44.9203 69.407 45.0252 69.407 45.1367C69.407 45.2483 69.3603 45.3531 69.2755 45.4322L62.4392 51.7753C62.2633 51.938 61.978 51.938 61.8022 51.7753L54.9662 45.4322C54.7904 45.2691 54.7904 45.0044 54.9662 44.8412L61.8022 38.4985C61.978 38.3354 62.2633 38.3354 62.4392 38.4985L63.7481 39.713L64.6574 38.869L63.3484 37.6544C62.6715 37.0264 61.5698 37.0264 60.8929 37.6544L54.0565 43.9975C53.3796 44.6256 53.3796 45.6478 54.0565 46.2759L60.8929 52.619C61.2316 52.9332 61.6761 53.0901 62.1207 53.0901C62.5652 53.0901 63.0102 52.9332 63.3484 52.619L70.1848 46.2759C70.5127 45.9716 70.6935 45.5671 70.6935 45.1367C70.6935 44.7063 70.5127 44.3018 70.1848 43.9975Z" fill="#00DF83"/>
<path d="M60.1717 43.4293L58.6635 44.8428L62.0212 47.9269L70.0494 39.7537L68.465 38.414L61.9418 45.055L60.1717 43.4293Z" fill="#00DF83"/>
<path d="M13.2106 21.5504V19.8306C13.2106 19.466 13.0707 19.1534 12.7899 18.8928C12.509 18.6323 12.1717 18.5016 11.7788 18.5016H11.5818C11.1889 18.5016 10.8515 18.6323 10.5707 18.8928C10.2899 19.1534 10.15 19.466 10.15 19.8306V29.888C10.15 30.2526 10.2899 30.5651 10.5707 30.8261C10.8515 31.0866 11.1889 31.2169 11.5818 31.2169H11.7788C12.1717 31.2169 12.509 31.0866 12.7899 30.8261C13.0707 30.5651 13.2106 30.2526 13.2106 29.888V28.1682H16.1874V29.888C16.1874 31.0171 15.7568 31.9815 14.8955 32.7798C14.0342 33.5789 12.9953 33.9785 11.7788 33.9785H11.5818C10.3648 33.9785 9.32591 33.5789 8.46508 32.7798C7.6038 31.9815 7.17317 31.0171 7.17317 29.888V19.8306C7.17317 18.7018 7.6038 17.7374 8.46508 16.9383C9.32591 16.1396 10.3648 15.74 11.5818 15.74H11.7788C12.9953 15.74 14.0342 16.1396 14.8955 16.9383C15.7568 17.7374 16.1874 18.7018 16.1874 19.8306V21.5504H13.2106Z" fill="white"/>
<path d="M27.3353 15.7401V29.888C27.3353 31.0172 26.9046 31.9811 26.0438 32.7798C25.1825 33.579 24.1436 33.9785 22.9266 33.9785H22.7301C21.5131 33.9785 20.4737 33.579 19.6129 32.7798C18.7516 31.9811 18.321 31.0172 18.321 29.888V15.7401H21.2978V29.888C21.2978 30.2526 21.4382 30.5652 21.719 30.8261C21.9998 31.0867 22.3367 31.217 22.7301 31.217H22.9266C23.32 31.217 23.6569 31.0867 23.9377 30.8261C24.2185 30.5652 24.3589 30.2526 24.3589 29.888V15.7401H27.3353Z" fill="white"/>
<path d="M35.535 21.8629L35.5628 19.7265C35.5628 19.3615 35.4224 19.0489 35.1416 18.7884C34.8607 18.5278 34.5239 18.3976 34.1305 18.3976H32.9511V23.3742H34.1026C34.496 23.3742 34.8329 23.2439 35.1137 22.983C35.3946 22.7224 35.535 22.4099 35.535 22.0452V21.8629ZM37.4163 24.7548C38.1646 25.5369 38.5396 26.44 38.5396 27.4648L38.5118 32.5979V33.9785H35.535V32.3894L35.5628 27.4648C35.5628 27.1002 35.4224 26.7876 35.1416 26.527C34.8607 26.2661 34.5239 26.1362 34.1305 26.1362H32.9511V33.8744H29.9748V15.636H34.1305C35.3475 15.636 36.3864 16.0355 37.2477 16.8343C38.1085 17.6334 38.5396 18.5973 38.5396 19.7265L38.5118 22.0452C38.5118 23.0704 38.1462 23.9731 37.4163 24.7548Z" fill="white"/>
<path d="M46.6549 21.8629L46.6827 19.7265C46.6827 19.3615 46.5428 19.0489 46.2619 18.7884C45.9811 18.5278 45.6438 18.3976 45.2508 18.3976H44.0715V23.3742H45.223C45.616 23.3742 45.9533 23.2439 46.2341 22.983C46.5149 22.7224 46.6549 22.4099 46.6549 22.0452V21.8629ZM48.5363 24.7548C49.2849 25.5369 49.6595 26.44 49.6595 27.4648L49.6317 32.5979V33.9785H46.6549V32.3894L46.6827 27.4648C46.6827 27.1002 46.5428 26.7876 46.2619 26.527C45.9811 26.2661 45.6438 26.1362 45.2508 26.1362H44.0715V33.8744H41.0947V15.636H45.2508C46.4674 15.636 47.5063 16.0355 48.3676 16.8343C49.2289 17.6334 49.6595 18.5973 49.6595 19.7265L49.6317 22.0452C49.6317 23.0704 49.2665 23.9731 48.5363 24.7548Z" fill="white"/>
<path d="M52.215 15.7401H55.1918V33.9786H52.215V15.7401Z" fill="white"/>
<path d="M63.7562 21.5504V19.8306C63.7562 19.466 63.6158 19.1534 63.335 18.8928C63.0542 18.6323 62.7173 18.5016 62.3239 18.5016H62.1274C61.734 18.5016 61.3971 18.6323 61.1163 18.8928C60.8355 19.1534 60.6951 19.466 60.6951 19.8306V29.888C60.6951 30.2526 60.8355 30.5651 61.1163 30.8261C61.3971 31.0866 61.734 31.2169 62.1274 31.2169H62.3239C62.7173 31.2169 63.0542 31.0866 63.335 30.8261C63.6158 30.5651 63.7562 30.2526 63.7562 29.888V28.1682H66.733V29.888C66.733 31.0171 66.3019 31.9815 65.4411 32.7798C64.5798 33.5789 63.5409 33.9785 62.3239 33.9785H62.1274C60.91 33.9785 59.8711 33.5789 59.0102 32.7798C58.1489 31.9815 57.7183 31.0171 57.7183 29.888V19.8306C57.7183 18.7018 58.1489 17.7374 59.0102 16.9383C59.8711 16.1396 60.91 15.74 62.1274 15.74H62.3239C63.5409 15.74 64.5798 16.1396 65.4411 16.9383C66.3019 17.7374 66.733 18.7018 66.733 19.8306V21.5504H63.7562Z" fill="white"/>
<path d="M77.8809 15.7401V29.888C77.8809 31.0172 77.4498 31.9811 76.5889 32.7798C75.7277 33.579 74.6887 33.9785 73.4722 33.9785H73.2753C72.0587 33.9785 71.0193 33.579 70.1585 32.7798C69.2968 31.9811 68.8666 31.0172 68.8666 29.888V15.7401H71.8434V29.888C71.8434 30.2526 71.9838 30.5652 72.2642 30.8261C72.545 31.0867 72.8823 31.217 73.2753 31.217H73.4722C73.8652 31.217 74.202 31.0867 74.4833 30.8261C74.7641 30.5652 74.9041 30.2526 74.9041 29.888V15.7401H77.8809Z" fill="white"/>
<path d="M87.6808 31.2168V33.9787H80.5201V15.7399H83.4969V31.2168H87.6808Z" fill="white"/>
<path d="M97.4809 31.2168C99.3716 31.2168 100.986 30.5962 102.325 29.3538C103.663 28.1122 104.333 26.6139 104.333 24.8595C104.333 23.1052 103.663 21.6068 102.325 20.3648C100.986 19.1229 99.3716 18.5019 97.4809 18.5019C95.5897 18.5019 93.9752 19.1229 92.6366 20.3648C91.2985 21.6068 90.6292 23.1052 90.6292 24.8595C90.6292 26.6139 91.2985 28.1122 92.6366 29.3538C93.9752 30.5962 95.5897 31.2168 97.4809 31.2168ZM92.5527 16.9644C94.0595 16.1482 95.7022 15.7399 97.4809 15.7399C99.2595 15.7399 100.902 16.1482 102.409 16.9644C103.916 17.7814 105.109 18.8885 105.99 20.2866C106.87 21.6851 107.309 23.2092 107.309 24.8595C107.309 26.5094 106.87 28.034 105.99 29.432C105.109 30.8305 103.916 31.9376 102.409 32.7538C100.902 33.5704 99.2595 33.9787 97.4809 33.9787C95.7022 33.9787 94.0595 33.5704 92.5527 32.7538C91.0455 31.9376 89.8518 30.8305 88.9722 29.432C88.0921 28.034 87.6524 26.5094 87.6524 24.8595C87.6524 23.2092 88.0921 21.6851 88.9722 20.2866C89.8518 18.8885 91.0455 17.7814 92.5527 16.9644Z" fill="white"/>
<path d="M12.1825 46.8185L11.2274 41.0693L10.3455 46.8185H12.1825ZM15.8075 53.09H13.1864L12.5745 49.2271H9.97859L9.36628 53.09H6.74567L9.21915 37.1835H13.2357L15.8075 53.09Z" fill="white"/>
<path d="M22.3706 40.7509C22.3706 40.4329 22.2482 40.1603 22.0032 39.933C21.7583 39.7058 21.464 39.5921 21.1218 39.5921H20.0927V45.1594H21.0971C21.4398 45.1594 21.7336 45.0458 21.9786 44.8185C22.2235 44.5917 22.3459 44.3186 22.3459 44.0007V43.8417L22.3706 40.7509ZM21.1218 37.1835C22.1827 37.1835 23.0892 37.5319 23.8397 38.2286C24.5906 38.9254 24.9666 39.7665 24.9666 40.7509L24.9419 44.0007C24.9419 44.9854 24.5664 45.8262 23.8155 46.5229C23.0646 47.2201 22.158 47.5684 21.0971 47.5684H20.0927V53.0899H17.4968V37.1835H21.1218Z" fill="white"/>
<path d="M31.6033 42.5234L31.628 40.66C31.628 40.3421 31.5055 40.0694 31.2606 39.8422C31.0157 39.6149 30.7219 39.5009 30.3791 39.5009H29.3505V43.8416H30.3545C30.6972 43.8416 30.9915 43.728 31.2364 43.5007C31.4813 43.2734 31.6033 43.0004 31.6033 42.6824V42.5234ZM33.2442 45.0461C33.8974 45.7274 34.2244 46.5153 34.2244 47.4089L34.1997 51.8857V53.0903H31.6033V51.7043L31.628 47.4089C31.628 47.091 31.5055 46.8183 31.2606 46.5907C31.0157 46.3638 30.7219 46.2502 30.3791 46.2502H29.3505V52.9991H26.7542V37.0923H30.3791C31.44 37.0923 32.3462 37.4411 33.0976 38.1378C33.8485 38.835 34.2244 39.6753 34.2244 40.66L34.1997 42.6824C34.1997 43.5765 33.8812 44.3643 33.2442 45.0461Z" fill="white"/>
<path d="M44.4124 50.6814C46.0614 50.6814 47.4695 50.1399 48.6372 49.0565C49.8044 47.9735 50.388 46.6666 50.388 45.1366C50.388 43.6066 49.8044 42.3001 48.6372 41.2167C47.4695 40.1337 46.0614 39.5918 44.4124 39.5918C42.763 39.5918 41.3549 40.1337 40.1877 41.2167C39.02 42.3001 38.4364 43.6066 38.4364 45.1366C38.4364 46.6666 39.02 47.9735 40.1877 49.0565C41.3549 50.1399 42.763 50.6814 44.4124 50.6814ZM40.1141 38.2512C41.4285 37.5395 42.8608 37.1832 44.4124 37.1832C45.9632 37.1832 47.396 37.5395 48.7103 38.2512C50.0246 38.9638 51.0654 39.9294 51.8333 41.1489C52.6004 42.368 52.9839 43.6978 52.9839 45.1366C52.9839 46.5763 52.6004 47.9053 51.8333 49.1248C51.0654 50.3443 50.0246 51.3103 48.7103 52.022C47.396 52.7346 45.9632 53.09 44.4124 53.09C42.8608 53.09 41.4285 52.7346 40.1141 52.022C38.7993 51.3103 37.7586 50.3443 36.9916 49.1248C36.2236 47.9053 35.8405 46.5763 35.8405 45.1366C35.8405 43.6978 36.2236 42.368 36.9916 41.1489C37.7586 39.9294 38.7993 38.9638 40.1141 38.2512Z" fill="white"/>
<path d="M75.9568 46.8185L75.0014 41.0693L74.1199 46.8185H75.9568ZM79.5814 53.09H76.9608L76.3485 49.2271H73.7525L73.1402 53.09H70.5196L72.9935 37.1835H77.0101L79.5814 53.09Z" fill="white"/>
<path d="M85.0178 39.592H83.8672V50.6816H85.0178C85.361 50.6816 85.6548 50.5676 85.8997 50.3403C86.1447 50.1131 86.2671 49.8405 86.2671 49.5225V40.7508C86.2671 40.4332 86.1447 40.1602 85.8997 39.9329C85.6548 39.7057 85.361 39.592 85.0178 39.592ZM85.0178 37.1834C86.0792 37.1834 86.9853 37.5318 87.7367 38.2289C88.4872 38.9253 88.8631 39.7664 88.8631 40.7508V49.5225C88.8631 50.5076 88.4872 51.348 87.7367 52.0447C86.9853 52.7419 86.0792 53.0903 85.0178 53.0903H81.2708V37.1834H85.0178Z" fill="white"/>
<path d="M99.0018 50.6814C100.651 50.6814 102.059 50.1399 103.227 49.0565C104.394 47.9735 104.978 46.6666 104.978 45.1366C104.978 43.6066 104.394 42.3001 103.227 41.2167C102.059 40.1337 100.651 39.5918 99.0018 39.5918C97.3524 39.5918 95.9447 40.1337 94.7771 41.2167C93.6094 42.3001 93.0263 43.6066 93.0263 45.1366C93.0263 46.6666 93.6094 47.9735 94.7771 49.0565C95.9447 50.1399 97.3524 50.6814 99.0018 50.6814ZM94.704 38.2512C96.0179 37.5395 97.4506 37.1832 99.0018 37.1832C100.553 37.1832 101.986 37.5395 103.3 38.2512C104.614 38.9638 105.655 39.9294 106.423 41.1489C107.19 42.368 107.574 43.6978 107.574 45.1366C107.574 46.5763 107.19 47.9053 106.423 49.1248C105.655 50.3443 104.614 51.3103 103.3 52.022C101.986 52.7346 100.553 53.09 99.0018 53.09C97.4506 53.09 96.0179 52.7346 94.704 52.022C93.3892 51.3103 92.3485 50.3443 91.5814 49.1248C90.8134 47.9053 90.4303 46.5763 90.4303 45.1366C90.4303 43.6978 90.8134 42.368 91.5814 41.1489C92.3485 39.9294 93.3892 38.9638 94.704 38.2512Z" fill="white"/>
<path d="M58.193 11.5661L54.4984 14.994L53.2671 13.8515L56.9616 10.4236L58.193 11.5661Z" fill="white"/>
</svg>
